<svg width="91" height="18" viewBox="0 0 91 18" version="1.1" xmlns="http://www.w3.org/2000/svg" xmlns:xlink="http://www.w3.org/1999/xlink">
<title>logo3</title>
<desc>Created using Figma</desc>
<g id="Canvas" transform="translate(129 57)">
<g id="logo3">
<g id="stopwatch (2)">
<g id="Group">
<g id="Group">
<g id="Vector">
<use xlink:href="#path0_fill" transform="translate(-84 -57)" fill="#FF5200"/>
</g>
</g>
</g>
<g id="Group">
<g id="Group">
<g id="Vector">
<use xlink:href="#path1_fill" transform="translate(-82.7526 -53.1822)" fill="#FF5200"/>
</g>
</g>
</g>
<g id="Group">
<g id="Group">
<g id="Vector">
<use xlink:href="#path2_fill" transform="translate(-76.9928 -50.7914)" fill="#FF5200"/>
</g>
</g>
</g>
</g>
<g id="UNT">
<use xlink:href="#path3_fill" transform="translate(-68 -61)" fill="#FFFFFF"/>
</g>
<g id="LIVE C">
<use xlink:href="#path4_fill" transform="translate(-130 -61)" fill="#FFFFFF"/>
</g>
</g>
</g>
<defs>
<path id="path0_fill" d="M 13.6569 4.87118C 13.6383 4.85336 13.6193 4.83606 13.6007 4.81845L 14.0307 4.40504L 14.1749 4.5437C 14.2478 4.6137 14.3432 4.64871 14.4387 4.64871C 14.5341 4.64871 14.6296 4.6137 14.7024 4.5437C 14.8481 4.40367 14.8481 4.17663 14.7024 4.03657L 13.8865 3.2522C 13.7408 3.11221 13.5047 3.11221 13.359 3.2522C 13.2133 3.39223 13.2133 3.61927 13.359 3.75933L 13.5032 3.89795L 13.0441 4.33923C 11.7176 3.29948 10.0946 2.7025 8.37298 2.62702L 8.37298 2.40947C 8.89791 2.25555 9.28095 1.78573 9.28095 1.23145C 9.28095 0.55241 8.70632 0 8 0C 7.29368 0 6.71905 0.55241 6.71905 1.23142C 6.71905 1.78576 7.10209 2.25555 7.62702 2.40943L 7.62702 2.62698C 5.63021 2.71452 3.7659 3.50339 2.34313 4.87111C 0.83212 6.3237 1.11603e-09 8.255 1.11603e-09 10.3093C 1.11603e-09 12.3635 0.832156 14.2948 2.34313 15.7474C 3.8541 17.2 5.86313 18 8 18C 10.1369 18 12.1459 17.2 13.6569 15.7475C 15.1679 14.2949 16 12.3636 16 10.3093C 16 8.25504 15.1678 6.32373 13.6569 4.87118ZM 7.46501 1.23142C 7.46501 0.947883 7.70499 0.717117 8 0.717117C 8.29501 0.717117 8.53499 0.947848 8.53499 1.23142C 8.53499 1.37559 8.47274 1.50595 8.37298 1.5994L 8.37298 1.54564C 8.37298 1.34761 8.206 1.18709 8 1.18709C 7.794 1.18709 7.62702 1.34761 7.62702 1.54564L 7.62702 1.5994C 7.52722 1.50595 7.46501 1.37563 7.46501 1.23142ZM 8 17.2829C 4.00013 17.2829 0.74596 14.1545 0.74596 10.3093C 0.74596 6.46411 4.00013 3.33573 8 3.33573C 11.9999 3.33573 15.254 6.46407 15.254 10.3093C 15.254 14.1545 11.9999 17.2829 8 17.2829Z"/>
<path id="path1_fill" d="M 6.75259 4.29153e-08C 3.02919 4.29153e-08 -1.16068e-07 2.9121 -1.16068e-07 6.4915C -1.16068e-07 10.0709 3.02919 12.983 6.75259 12.983C 10.476 12.983 13.5052 10.0709 13.5052 6.49153C 13.5052 2.91213 10.476 4.29153e-08 6.75259 4.29153e-08ZM 6.75259 12.2659C 3.44053 12.2659 0.74596 9.67549 0.74596 6.4915C 0.74596 3.3075 3.44053 0.717117 6.75259 0.717117C 10.0646 0.717117 12.7592 3.3075 12.7592 6.4915C 12.7592 9.67549 10.0646 12.2659 6.75259 12.2659Z"/>
<path id="path2_fill" d="M 1.36575 3.21648L 1.36575 0.358558C 1.36575 0.160523 1.19877 2.14577e-07 0.992772 2.14577e-07C 0.786772 2.14577e-07 0.619792 0.160523 0.619792 0.358558L 0.619792 3.21648C 0.256723 3.35855 -1.16068e-07 3.70125 -1.16068e-07 4.1007C -1.16068e-07 4.62691 0.445352 5.05508 0.992772 5.05508C 1.54019 5.05508 1.98555 4.62695 1.98555 4.1007C 1.98555 3.70125 1.72882 3.35855 1.36575 3.21648ZM 0.992772 4.33797C 0.856695 4.33797 0.74596 4.23155 0.74596 4.1007C 0.74596 3.96984 0.856658 3.86343 0.992772 3.86343C 1.12889 3.86343 1.23958 3.96984 1.23958 4.1007C 1.23958 4.23155 1.12885 4.33797 0.992772 4.33797Z"/>
<path id="path3_fill" d="M 7.88 6.14L 9.56 6.14C 9.85333 6.14 10 6.27333 10 6.54L 10 15.74C 10 16.78 9.70667 17.5867 9.12 18.16C 8.54667 18.72 7.74 19 6.7 19L 4.5 19C 3.44667 19 2.63333 18.72 2.06 18.16C 1.48667 17.6 1.2 16.7933 1.2 15.74L 1.2 6.56C 1.2 6.28 1.34 6.14 1.62 6.14L 3.32 6.14C 3.6 6.14 3.74 6.28 3.74 6.56L 3.74 15.62C 3.74 16.0467 3.82667 16.3533 4 16.54C 4.18667 16.7133 4.48667 16.8 4.9 16.8L 6.28 16.8C 6.70667 16.8 7.00667 16.7133 7.18 16.54C 7.36667 16.3533 7.46 16.0467 7.46 15.62L 7.46 6.56C 7.46 6.28 7.6 6.14 7.88 6.14ZM 13.7714 19L 12.1114 19C 11.8314 19 11.6914 18.86 11.6914 18.58L 11.6914 6.56C 11.6914 6.28 11.8314 6.14 12.1114 6.14L 13.6114 6.14C 13.8914 6.14 14.0781 6.23333 14.1714 6.42L 18.2114 14L 18.2914 14L 18.2914 6.56C 18.2914 6.28 18.4314 6.14 18.7114 6.14L 20.3714 6.14C 20.6514 6.14 20.7914 6.28 20.7914 6.56L 20.7914 18.58C 20.7914 18.86 20.6514 19 20.3714 19L 18.9114 19C 18.6181 19 18.4047 18.8667 18.2714 18.6L 14.2714 11.16L 14.1914 11.16L 14.1914 18.58C 14.1914 18.86 14.0514 19 13.7714 19ZM 26.5706 19L 24.8906 19C 24.5973 19 24.4506 18.86 24.4506 18.58L 24.4506 8.56C 24.4506 8.41333 24.3773 8.34 24.2306 8.34L 21.9506 8.34C 21.6706 8.34 21.5306 8.2 21.5306 7.92L 21.5306 6.56C 21.5306 6.28 21.6706 6.14 21.9506 6.14L 29.5106 6.14C 29.7906 6.14 29.9306 6.28 29.9306 6.56L 29.9306 7.92C 29.9306 8.2 29.7906 8.34 29.5106 8.34L 27.2306 8.34C 27.0706 8.34 26.9906 8.41333 26.9906 8.56L 26.9906 18.58C 26.9906 18.86 26.8506 19 26.5706 19Z"/>
<path id="path4_fill" d="M 8.3 19L 1.72 19C 1.44 19 1.3 18.86 1.3 18.58L 1.3 6.56C 1.3 6.28 1.44 6.14 1.72 6.14L 3.42 6.14C 3.7 6.14 3.84 6.28 3.84 6.56L 3.84 16.56C 3.84 16.7067 3.92 16.78 4.08 16.78L 8.3 16.78C 8.56667 16.78 8.7 16.9267 8.7 17.22L 8.7 18.58C 8.7 18.86 8.56667 19 8.3 19ZM 12.1244 6.56L 12.1244 18.58C 12.1244 18.86 11.9844 19 11.7044 19L 10.0044 19C 9.72437 19 9.58437 18.86 9.58437 18.58L 9.58437 6.56C 9.58437 6.28 9.72437 6.14 10.0044 6.14L 11.7044 6.14C 11.9844 6.14 12.1244 6.28 12.1244 6.56ZM 19.2564 19L 16.6364 19C 16.3564 19 16.1897 18.86 16.1364 18.58L 13.0364 6.6C 12.9431 6.29333 13.0764 6.14 13.4364 6.14L 15.3164 6.14C 15.5831 6.14 15.7431 6.28 15.7964 6.56L 17.8964 16.4L 17.9764 16.4L 20.0764 6.56C 20.1297 6.28 20.2897 6.14 20.5564 6.14L 22.4364 6.14C 22.7697 6.14 22.9031 6.29333 22.8364 6.6L 19.7364 18.58C 19.6697 18.86 19.5097 19 19.2564 19ZM 30.6061 19L 24.0661 19C 23.7861 19 23.6461 18.86 23.6461 18.58L 23.6461 6.56C 23.6461 6.28 23.7861 6.14 24.0661 6.14L 30.6061 6.14C 30.8728 6.14 31.0061 6.28 31.0061 6.56L 31.0061 7.92C 31.0061 8.2 30.8728 8.34 30.6061 8.34L 26.4261 8.34C 26.2661 8.34 26.1861 8.41333 26.1861 8.56L 26.1861 11.16C 26.1861 11.3067 26.2661 11.38 26.4261 11.38L 29.8461 11.38C 30.1261 11.38 30.2661 11.52 30.2661 11.8L 30.2661 13.16C 30.2661 13.44 30.1261 13.58 29.8461 13.58L 26.4261 13.58C 26.2661 13.58 26.1861 13.6533 26.1861 13.8L 26.1861 16.58C 26.1861 16.7267 26.2661 16.8 26.4261 16.8L 30.6061 16.8C 30.8728 16.8 31.0061 16.94 31.0061 17.22L 31.0061 18.58C 31.0061 18.86 30.8728 19 30.6061 19ZM 41.2909 19L 39.1109 19C 38.0576 19 37.2443 18.72 36.6709 18.16C 36.0976 17.6 35.8109 16.7933 35.8109 15.74L 35.8109 9.4C 35.8109 8.34667 36.0976 7.54 36.6709 6.98C 37.2443 6.42 38.0576 6.14 39.1109 6.14L 41.2909 6.14C 42.3309 6.14 43.1376 6.42667 43.7109 7C 44.2976 7.56 44.5909 8.36 44.5909 9.4L 44.5909 10.34C 44.5909 10.6333 44.4443 10.78 44.1509 10.78L 42.4709 10.78C 42.1909 10.78 42.0509 10.6333 42.0509 10.34L 42.0509 9.52C 42.0509 9.09333 41.9576 8.79333 41.7709 8.62C 41.5976 8.43333 41.2976 8.34 40.8709 8.34L 39.5109 8.34C 39.0976 8.34 38.7976 8.43333 38.6109 8.62C 38.4376 8.79333 38.3509 9.09333 38.3509 9.52L 38.3509 15.62C 38.3509 16.0467 38.4376 16.3533 38.6109 16.54C 38.7976 16.7133 39.0976 16.8 39.5109 16.8L 40.8709 16.8C 41.2976 16.8 41.5976 16.7133 41.7709 16.54C 41.9576 16.3533 42.0509 16.0467 42.0509 15.62L 42.0509 14.8C 42.0509 14.5067 42.1909 14.36 42.4709 14.36L 44.1509 14.36C 44.4443 14.36 44.5909 14.5067 44.5909 14.8L 44.5909 15.74C 44.5909 16.78 44.2976 17.5867 43.7109 18.16C 43.1376 18.72 42.3309 19 41.2909 19Z"/>
</defs>
</svg>
